<?xml version="1.0" standalone="no"?>
<!DOCTYPE svg PUBLIC "-//W3C//DTD SVG 20010904//EN"
 "http://www.w3.org/TR/2001/REC-SVG-20010904/DTD/svg10.dtd">
<svg version="1.0" xmlns="http://www.w3.org/2000/svg"
 width="200.000000pt" height="65.000000pt" viewBox="0 0 200.000000 65.000000"
 preserveAspectRatio="xMidYMid meet">

<g transform="translate(0.000000,65.000000) scale(0.100000,-0.100000)"
fill="#000000" stroke="none">
<path d="M680 205 l0 -115 68 0 c54 0 72 4 85 18 21 23 22 60 1 83 -12 14 -13
21 -3 37 32 50 -17 92 -107 92 l-44 0 0 -115z m114 72 c10 -7 17 -22 14 -33
-2 -15 -13 -20 -51 -22 -46 -3 -47 -2 -47 26 0 16 3 32 7 35 11 12 58 8 77 -6z
m10 -100 c10 -7 17 -22 14 -33 -2 -15 -13 -20 -56 -22 l-52 -3 0 35 c0 35 1
36 38 36 21 0 46 -6 56 -13z"/>
<path d="M963 283 c-8 -21 -28 -69 -44 -107 -16 -37 -29 -72 -29 -77 0 -19 27
-8 38 16 10 22 18 25 66 25 49 0 54 -2 60 -25 4 -16 13 -25 25 -25 18 0 16 9
-21 103 -58 144 -68 153 -95 90z m61 -91 c7 -20 4 -22 -33 -22 -23 0 -41 2
-41 4 0 2 9 26 21 53 l21 48 13 -31 c7 -17 16 -40 19 -52z"/>
<path d="M1090 313 c0 -4 18 -37 40 -74 29 -49 40 -79 40 -108 0 -30 4 -41 15
-41 11 0 15 12 15 45 0 34 8 58 35 100 46 71 51 85 32 85 -8 0 -29 -22 -46
-50 -17 -27 -33 -50 -36 -50 -3 0 -19 23 -36 50 -17 28 -37 50 -45 50 -8 0
-14 -3 -14 -7z"/>
<path d="M1362 308 c-6 -7 -20 -38 -32 -68 -12 -30 -30 -76 -41 -103 -16 -40
-17 -47 -4 -47 9 0 21 11 27 25 10 22 17 25 65 25 48 0 54 -3 63 -25 12 -31
45 -35 35 -5 -17 54 -85 205 -93 208 -5 1 -14 -3 -20 -10z m48 -125 c0 -8 -14
-13 -35 -13 -40 0 -40 0 -18 59 l17 45 18 -40 c10 -21 18 -45 18 -51z"/>
<path d="M1530 205 l0 -115 58 0 c83 1 122 38 122 118 0 70 -56 112 -147 112
l-33 0 0 -115z m128 50 c47 -55 13 -135 -59 -135 l-39 0 0 86 0 87 38 -6 c22
-4 46 -17 60 -32z"/>
<path d="M1821 303 c-14 -27 -81 -196 -81 -205 0 -20 30 -5 36 17 6 23 11 25
64 25 53 0 58 -2 64 -25 4 -16 13 -25 25 -25 18 0 16 9 -21 103 -53 133 -66
148 -87 110z m53 -111 c7 -20 4 -22 -33 -22 -23 0 -41 2 -41 4 0 2 9 26 21 53
l21 48 13 -31 c7 -17 16 -40 19 -52z"/>
</g>
</svg>
